<svg id="Capa_1" data-name="Capa 1" xmlns="http://www.w3.org/2000/svg" viewBox="0 0 92.81 42.64"><defs><style>.cls-1{fill:#c30e2e;}</style></defs><path class="cls-1" d="M73.49,15.64h1.75c1,0,1.9,0,2.85,0a3.33,3.33,0,0,0,3.15-1.91,1.22,1.22,0,0,0-1.16-1.94H76.94l-.69,0c.28-1.46.55-2.87.83-4.27.41-2.15.84-4.3,1.25-6.45.06-.27.08-.54.47-.54A20.78,20.78,0,0,1,85,1.06a11,11,0,0,1,7.78,10.47c0,5.23-2.45,9.19-6.46,12.28A15.13,15.13,0,0,1,76.6,27c-1.61,0-3.22,0-4.83,0-.4,0-.56.12-.64.54-.91,4.86-1.84,9.71-2.75,14.56-.07.37-.2.53-.6.53H57.14a3,3,0,0,1-.42-.06c.2-1,.39-2.07.59-3.08q2.47-12.5,4.94-25c.43-2.19-1-3.55-3.23-3.14a3.63,3.63,0,0,0-3.31,3.74A66.23,66.23,0,0,0,56,22c.4,4.27,0,8.39-2.22,12.15A16.84,16.84,0,0,1,41.5,42.4a13.64,13.64,0,0,1-11-2.8.68.68,0,0,0-.87-.07,23.24,23.24,0,0,1-11.9,3.09c-6-.11-10.93-2.34-14.45-7.26A17.94,17.94,0,0,1,.1,22.89C1.08,12.37,10,2.61,20.85.43a23,23,0,0,1,7.4-.24c.52.06,1,.15,1.56.16s.55.21.46.63c-.58,3-1.16,5.93-1.73,8.9a14.88,14.88,0,0,0-.29,1.48c-.05.47-.28.52-.66.45-.69-.13-1.38-.24-2.07-.35a10.64,10.64,0,0,0-7,1.45,13.07,13.07,0,0,0-6.84,9,7.46,7.46,0,0,0,4.23,8.66,9.19,9.19,0,0,0,6.16.33,22.32,22.32,0,0,0,2.3-.79.9.9,0,0,0,.63-.81c.11-.82.3-1.62.48-2.53H20c0-.23,0-.38.07-.52.51-2.17,1-4.33,1.51-6.51.08-.33.19-.5.57-.5H37.46a2.89,2.89,0,0,1,.36.06c-.15.81-.28,1.61-.44,2.4-.35,1.84-.72,3.68-1.08,5.53-.39,2,.41,3.3,2.46,3.65a6.62,6.62,0,0,0,2.47,0c1.86-.4,2.84-1.71,2.88-3.91s0-4.26-.17-6.38c-.27-4.47.32-8.75,2.9-12.51A17.72,17.72,0,0,1,59,.49a13.14,13.14,0,0,1,8.32,1.15,10.93,10.93,0,0,1,6.17,8.68A39.17,39.17,0,0,1,73.49,15.64Z"/></svg>